<svg xmlns="http://www.w3.org/2000/svg" width="560" height="82" viewBox="0 0 684.77 100.39">
    <title>Enterprise Nxt</title>
    <path fill="#1dae87" d="M497.15 61.1h17.71v17.71h-17.71z"/>
    <path fill="#fff" d="M86.71 21.56c12.63 0 19.64 8.29 19.64 21.94v35.33H95.77V43.76c0-7.28-3.7-12.51-11.74-12.51a14.75 14.75 0 00-14.16 10.21v37.37H59.29V22.71h10.58v8.16a19.38 19.38 0 0116.84-9.31zm48.09 1.15h14.41v9.06H134.8V62c0 6.37 3.32 8.54 9.31 8.54a13.55 13.55 0 004.72-.76h.38v9.05a17.1 17.1 0 01-6.63 1.15c-13.14 0-18.37-6-18.37-17V31.77h-9.69v-9.06h9.69V7.79h10.59zm48.86 57.27c-16.46 0-27.69-11-27.69-28.57s10.46-29.85 25.65-29.85c15.43 0 23.47 11.1 23.47 27.55v4.85h-38.53c1.15 11.35 8.42 16.84 18.5 16.84a23.88 23.88 0 0015.69-5.11h.38v9.32c-4.59 3.57-10.59 4.97-17.47 4.97zm-16.71-34.7h27.93c-.38-8.28-4.46-14.66-13.14-14.66-8.03 0-13.26 5.99-14.79 14.66zM27.68 79.98C11.22 79.98 0 68.98 0 51.41s10.45-29.85 25.64-29.85c15.43 0 23.47 11.1 23.47 27.55v4.85H10.58C11.73 65.31 19 70.8 29.08 70.8a23.87 23.87 0 0015.69-5.11h.39v9.32c-4.6 3.57-10.6 4.97-17.48 4.97zm-16.71-34.7H38.9c-.38-8.28-4.46-14.66-13.14-14.66-8.03 0-13.26 5.99-14.79 14.66zm217.2-13.9a14.83 14.83 0 0113.91-9.56 13.36 13.36 0 015.48.89V33.2h-.38a16.38 16.38 0 00-6.63-1.14c-5.74 0-10.59 3.83-12.38 10.21v36.6h-10.58V22.71h10.58zm55.36-9.82c16.72 0 25.64 13.65 25.64 29.21s-8.92 29.21-25.64 29.21a20.3 20.3 0 01-15.68-7.4v27.82h-10.59V22.71h10.59v6.37a20 20 0 0115.68-7.52zm-1.78 48.85c10.46 0 16.58-8.29 16.58-19.64s-6.12-19.64-16.58-19.64a15.82 15.82 0 00-13.9 8.92v21.57a15.69 15.69 0 0013.9 8.79zm50.52-39a14.81 14.81 0 0113.9-9.56 13.36 13.36 0 015.48.89V33.2h-.38a16.38 16.38 0 00-6.63-1.14c-5.74 0-10.59 3.83-12.37 10.21v36.6h-10.59V22.71h10.59zM366.96.03a6.64 6.64 0 110 13.27 6.64 6.64 0 110-13.27zm-5.23 22.71h10.59v56.12h-10.59zm48.35 23.34c8 2.55 17 5.87 17 16.58 0 11.49-9.44 17.35-21.55 17.35-7.4 0-14.8-1.79-19-5.1V64.8h.51c4.72 4.34 11.73 6.25 18.37 6.25 6 0 11.35-2.3 11.35-7.14s-4.46-6.12-13.27-9.06c-7.91-2.55-16.71-5.48-16.71-16.07 0-10.85 8.93-17.22 20.29-17.22 6.63 0 12.49 1.4 17.22 4.59v10.21h-.39a25.5 25.5 0 00-16.58-5.87c-6.63 0-10.33 2.93-10.33 6.89-.05 4.46 4.03 5.74 13.09 8.67zm53.83 33.93c-16.46 0-27.68-11-27.68-28.57s10.46-29.85 25.63-29.85c15.44 0 23.48 11.1 23.48 27.55v4.85h-38.53c1.15 11.35 8.42 16.84 18.5 16.84A23.88 23.88 0 00481 65.72h.38v9.32c-4.59 3.54-10.59 4.94-17.47 4.94zm-16.71-34.7h27.93c-.38-8.28-4.46-14.66-13.14-14.66-8.03-.03-13.26 5.96-14.79 14.63zM647.48 22.71h8.51V7.45h16.51v15.26h12.26v13.26H672.5v22.65c0 4.87 1.88 7.12 6.88 7.12a15.57 15.57 0 005-.75h.37v13a29.29 29.29 0 01-10.13 1.63c-13.39 0-18.64-6.13-18.64-20.27V35.97h-8.5zM528.14 22.71h16.43v5.14c3-3.51 9.37-6.4 15.9-6.4 12.68 0 19.83 8.28 19.83 20.71v36.66h-16.4V45.9c0-5.9-3-9.92-9.16-9.92a10.2 10.2 0 00-10.17 7.78v35.06h-16.43zM623.38 49.82l20.54 29h-18.15l-11.65-17-11.78 17h-17.18l20.22-28.62-19.06-27.49h18.13l10.34 15.26 10.59-15.26h17.19z"/>
</svg>